<svg width="520" height="340" viewBox="0 0 520 340" fill="none" xmlns="http://www.w3.org/2000/svg" role="img" aria-label="Student task planning illustration">
  <rect width="520" height="340" rx="24" fill="#FFFFFF" fill-opacity="0.16"/>
  <rect x="62" y="72" width="270" height="196" rx="14" fill="#FFFFFF"/>
  <rect x="88" y="104" width="138" height="14" rx="7" fill="#144B5A"/>
  <rect x="88" y="138" width="210" height="16" rx="8" fill="#D9E2EC"/>
  <rect x="88" y="178" width="210" height="16" rx="8" fill="#D9E2EC"/>
  <rect x="88" y="218" width="160" height="16" rx="8" fill="#D9E2EC"/>
  <circle cx="285" cy="146" r="12" fill="#207868"/>
  <path d="M279 146L283 150L292 140" stroke="white" stroke-width="4" stroke-linecap="round" stroke-linejoin="round"/>
  <circle cx="285" cy="186" r="12" fill="#F2B84B"/>
  <path d="M279 186L283 190L292 180" stroke="white" stroke-width="4" stroke-linecap="round" stroke-linejoin="round"/>
  <circle cx="285" cy="226" r="12" fill="#C43D4B"/>
  <path d="M279 226L283 230L292 220" stroke="white" stroke-width="4" stroke-linecap="round" stroke-linejoin="round"/>
  <rect x="350" y="102" width="88" height="136" rx="42" fill="#FFD4A3"/>
  <path d="M352 153C368 166 420 166 436 153V226C436 250 417 270 394 270C371 270 352 250 352 226V153Z" fill="#2766B1"/>
  <path d="M340 120C342 91 363 70 395 70C428 70 450 92 448 126C435 113 421 111 398 112C374 113 357 118 340 120Z" fill="#1F2933"/>
  <circle cx="376" cy="138" r="5" fill="#1F2933"/>
  <circle cx="414" cy="138" r="5" fill="#1F2933"/>
  <path d="M382 162C390 168 401 168 409 162" stroke="#1F2933" stroke-width="5" stroke-linecap="round"/>
  <rect x="326" y="250" width="140" height="20" rx="10" fill="#144B5A"/>
  <rect x="296" y="284" width="196" height="18" rx="9" fill="#FFFFFF" fill-opacity="0.7"/>
</svg>
